<svg xmlns="http://www.w3.org/2000/svg" width="40" height="40" viewBox="0 0 40 40" fill="none">
  <defs>
    <linearGradient id="lg1" x1="0" y1="0" x2="40" y2="40" gradientUnits="userSpaceOnUse">
      <stop stopColor="#3b82f6" />
      <stop offset="1" stopColor="#8b5cf6" />
    </linearGradient>
    <linearGradient id="lg2" x1="40" y1="0" x2="0" y2="40" gradientUnits="userSpaceOnUse">
      <stop stopColor="#60a5fa" />
      <stop offset="1" stopColor="#a78bfa" />
    </linearGradient>
  </defs>
  <!-- Outer hexagon fill -->
  <path d="M20 2L36 11V29L20 38L4 29V11Z" fill="url(#lg1)" opacity="0.15" />
  <!-- Outer hexagon stroke -->
  <path d="M20 2L36 11V29L20 38L4 29V11Z" stroke="url(#lg1)" stroke-width="1.5" fill="none" />
  <!-- Cloud shape -->
  <path d="M12 24C10.343 24 9 22.657 9 21C9 19.343 10.343 18 12 18C12.34 18 12.667 18.058 12.971 18.163C13.42 16.33 15.062 15 17 15C19.209 15 21 16.791 21 19H22C23.657 19 25 20.343 25 22C25 23.657 23.657 25 22 25H12V24Z" fill="url(#lg2)" />
  <!-- Network nodes -->
  <circle cx="20" cy="10" r="2" fill="url(#lg1)" />
  <circle cx="30" cy="28" r="1.5" fill="url(#lg1)" />
  <circle cx="10" cy="28" r="1.5" fill="url(#lg1)" />
  <!-- Connection lines -->
  <line x1="20" y1="12" x2="20" y2="15" stroke="url(#lg1)" stroke-width="1" stroke-dasharray="2 1" />
  <line x1="25" y1="22" x2="29" y2="26.5" stroke="url(#lg1)" stroke-width="1" stroke-dasharray="2 1" />
  <line x1="13" y1="23" x2="11" y2="26.5" stroke="url(#lg1)" stroke-width="1" stroke-dasharray="2 1" />
</svg>
